<?xml version="1.0" encoding="UTF-8"?> <!-- Generator: Adobe Illustrator 21.0.0, SVG Export Plug-In . SVG Version: 6.00 Build 0) --> <svg xmlns="http://www.w3.org/2000/svg" xmlns:xlink="http://www.w3.org/1999/xlink" id="Capa_1" x="0px" y="0px" viewBox="0 0 159.4 40" style="enable-background:new 0 0 159.4 40;" xml:space="preserve"> <style type="text/css"> .st0{fill:#FFFFFF;} .st1{fill:#EDAA00;} </style> <g> <g> <g> <path class="st0" d="M12.7,37.5c-0.5,0-0.9-0.1-1.3-0.3c-0.4-0.2-0.8-0.4-1.1-0.7s-0.5-0.7-0.7-1.1c-0.2-0.4-0.3-0.9-0.3-1.3 c0-0.5,0.1-0.9,0.3-1.3c0.2-0.4,0.4-0.8,0.7-1.1s0.6-0.5,1.1-0.7c0.4-0.2,0.8-0.3,1.3-0.3c0.8,0,1.5,0.2,2,0.7 c0.6,0.5,0.9,1.1,1.1,1.9h-1.4c-0.1-0.4-0.4-0.7-0.7-0.9c-0.3-0.2-0.7-0.3-1.1-0.3c-0.5,0-1,0.2-1.4,0.6 c-0.4,0.4-0.5,0.9-0.5,1.5c0,0.6,0.2,1.1,0.5,1.4c0.4,0.4,0.8,0.6,1.4,0.6c0.4,0,0.8-0.1,1.1-0.4c0.3-0.2,0.5-0.6,0.6-1h1.4 c-0.1,0.8-0.5,1.4-1.1,1.9C14.2,37.3,13.5,37.5,12.7,37.5z"></path> <path class="st0" d="M18.9,37.5c-0.5,0-1-0.1-1.4-0.3c-0.4-0.2-0.7-0.5-1-0.9c-0.2-0.4-0.3-0.8-0.3-1.3c0-0.5,0.1-0.9,0.3-1.3 c0.2-0.4,0.6-0.7,1-0.9c0.4-0.2,0.9-0.3,1.4-0.3c0.5,0,1,0.1,1.4,0.3c0.4,0.2,0.7,0.5,1,0.9c0.2,0.4,0.4,0.8,0.4,1.3 c0,0.5-0.1,0.9-0.4,1.3c-0.2,0.4-0.6,0.7-1,0.9C19.9,37.4,19.4,37.5,18.9,37.5z M18,35.9c0.2,0.3,0.6,0.4,1,0.4 c0.4,0,0.7-0.1,1-0.4c0.2-0.3,0.4-0.6,0.4-1c0-0.4-0.1-0.7-0.4-1c-0.2-0.3-0.6-0.4-1-0.4c-0.4,0-0.7,0.1-1,0.4 c-0.2,0.3-0.4,0.6-0.4,1C17.6,35.3,17.7,35.6,18,35.9z"></path> <path class="st0" d="M25.1,32.3c0.6,0,1,0.2,1.3,0.6c0.3,0.4,0.5,0.9,0.5,1.5v3h-1.3v-2.8c0-0.7-0.3-1.1-0.9-1.1 c-0.3,0-0.6,0.1-0.8,0.3c-0.2,0.2-0.3,0.5-0.3,1v2.6h-1.3v-5h0.9l0.3,0.6c0.2-0.2,0.4-0.4,0.7-0.5C24.5,32.4,24.8,32.3,25.1,32.3 z"></path> <path class="st0" d="M29.7,37.5c-0.6,0-1.1-0.2-1.5-0.5c-0.4-0.3-0.6-0.8-0.6-1.3h1.3c0,0.2,0.1,0.4,0.2,0.5 c0.2,0.1,0.4,0.2,0.6,0.2c0.2,0,0.4,0,0.5-0.1c0.1-0.1,0.2-0.2,0.2-0.4c0-0.1,0-0.2-0.1-0.2c0-0.1-0.1-0.1-0.2-0.2 c-0.1,0-0.2-0.1-0.3-0.1c-0.1,0-0.2,0-0.4-0.1c-0.1,0-0.3,0-0.4-0.1c-0.1,0-0.2,0-0.3-0.1c-0.1,0-0.3-0.1-0.3-0.1 c-0.1,0-0.2-0.1-0.3-0.2c-0.1-0.1-0.2-0.2-0.2-0.3c-0.1-0.1-0.1-0.2-0.2-0.3c0-0.1-0.1-0.3-0.1-0.4c0-0.5,0.2-0.9,0.6-1.1 c0.4-0.3,0.9-0.4,1.4-0.4c0.6,0,1.1,0.2,1.4,0.5c0.4,0.3,0.5,0.7,0.5,1.2h-1.3c0-0.2-0.1-0.3-0.2-0.4c-0.1-0.1-0.3-0.1-0.6-0.1 c-0.2,0-0.4,0-0.5,0.1c-0.1,0.1-0.2,0.2-0.2,0.3c0,0.1,0,0.1,0,0.1c0,0,0.1,0.1,0.1,0.1c0,0,0.1,0.1,0.1,0.1c0,0,0.1,0,0.2,0.1 c0.1,0,0.2,0,0.2,0s0.1,0,0.3,0c0.5,0.1,0.8,0.2,1,0.3c0.5,0.2,0.8,0.7,0.8,1.3c0,0.5-0.2,0.9-0.6,1.2 C30.8,37.4,30.3,37.5,29.7,37.5z"></path> <path class="st0" d="M35,36.2h0.6v1.2h-1c-0.5,0-1-0.2-1.3-0.5c-0.3-0.3-0.5-0.7-0.5-1.3v-2.1H32v-0.3l2-2.1h0.3v1.3h1.4v1.1 h-1.3v1.9c0,0.2,0.1,0.4,0.2,0.6C34.6,36.1,34.8,36.2,35,36.2z"></path> <path class="st0" d="M38.9,32.4h0.4v1.3h-0.6c-0.4,0-0.6,0.1-0.8,0.3c-0.2,0.2-0.2,0.5-0.2,0.9v2.6h-1.3v-5h0.9l0.2,0.6 C37.8,32.6,38.2,32.4,38.9,32.4z"></path> <path class="st0" d="M42.1,37.5c-0.7,0-1.3-0.2-1.7-0.6c-0.4-0.4-0.6-1-0.6-1.6v-2.9h1.3v2.7c0,0.4,0.1,0.6,0.3,0.8 c0.2,0.2,0.4,0.3,0.7,0.3s0.6-0.1,0.7-0.3c0.2-0.2,0.3-0.5,0.3-0.8v-2.7h1.3v2.9c0,0.7-0.2,1.2-0.6,1.6 C43.3,37.3,42.8,37.5,42.1,37.5z"></path> <path class="st0" d="M45.3,31.8v-1.2h1.3v1.2H45.3z M45.3,37.4v-5h1.3v5H45.3z"></path> <path class="st0" d="M53.3,32.3c0.5,0,0.9,0.2,1.3,0.5c0.3,0.4,0.5,0.8,0.5,1.4v3.1h-1.3v-2.9c0-0.3-0.1-0.6-0.2-0.8 c-0.1-0.2-0.3-0.3-0.6-0.3c-0.3,0-0.5,0.1-0.7,0.3C52.1,34,52,34.3,52,34.7v2.7h-1.3v-2.9c0-0.3-0.1-0.6-0.2-0.8 c-0.1-0.2-0.3-0.3-0.5-0.3c-0.3,0-0.5,0.1-0.7,0.3C49.1,34,49,34.3,49,34.7v2.7h-1.3v-5h0.9l0.3,0.6c0.2-0.2,0.4-0.4,0.7-0.5 c0.3-0.1,0.5-0.2,0.8-0.2c0.3,0,0.6,0.1,0.8,0.2c0.3,0.1,0.4,0.3,0.6,0.6c0.2-0.2,0.4-0.4,0.7-0.6C52.7,32.4,53,32.3,53.3,32.3z"></path> <path class="st0" d="M58.4,37.5c-0.5,0-1-0.1-1.4-0.3c-0.4-0.2-0.7-0.5-1-0.9c-0.2-0.4-0.3-0.8-0.3-1.3c0-0.5,0.1-0.9,0.3-1.3 c0.2-0.4,0.6-0.7,1-0.9c0.4-0.2,0.9-0.3,1.4-0.3c0.5,0,1,0.1,1.4,0.3c0.4,0.2,0.7,0.5,1,0.9c0.2,0.4,0.4,0.8,0.4,1.3 c0,0.5-0.1,0.9-0.4,1.3c-0.2,0.4-0.6,0.7-1,0.9C59.4,37.4,58.9,37.5,58.4,37.5z M57.5,35.9c0.2,0.3,0.6,0.4,1,0.4 c0.4,0,0.7-0.1,1-0.4c0.2-0.3,0.4-0.6,0.4-1c0-0.4-0.1-0.7-0.4-1c-0.2-0.3-0.6-0.4-1-0.4c-0.4,0-0.7,0.1-1,0.4 c-0.2,0.3-0.4,0.6-0.4,1C57.1,35.3,57.2,35.6,57.5,35.9z"></path> <path class="st0" d="M63.6,37.5c-0.6,0-1.1-0.2-1.5-0.5c-0.4-0.3-0.6-0.8-0.6-1.3h1.3c0,0.2,0.1,0.4,0.2,0.5 c0.2,0.1,0.4,0.2,0.6,0.2c0.2,0,0.4,0,0.5-0.1c0.1-0.1,0.2-0.2,0.2-0.4c0-0.1,0-0.2-0.1-0.2c0-0.1-0.1-0.1-0.2-0.2 c-0.1,0-0.2-0.1-0.3-0.1c-0.1,0-0.2,0-0.4-0.1c-0.1,0-0.3,0-0.4-0.1c-0.1,0-0.2,0-0.3-0.1c-0.1,0-0.3-0.1-0.3-0.1 c-0.1,0-0.2-0.1-0.3-0.2c-0.1-0.1-0.2-0.2-0.2-0.3c-0.1-0.1-0.1-0.2-0.2-0.3c0-0.1-0.1-0.3-0.1-0.4c0-0.5,0.2-0.9,0.6-1.1 c0.4-0.3,0.9-0.4,1.4-0.4c0.6,0,1.1,0.2,1.4,0.5c0.4,0.3,0.5,0.7,0.5,1.2h-1.3c0-0.2-0.1-0.3-0.2-0.4c-0.1-0.1-0.3-0.1-0.6-0.1 c-0.2,0-0.4,0-0.5,0.1c-0.1,0.1-0.2,0.2-0.2,0.3c0,0.1,0,0.1,0,0.1c0,0,0.1,0.1,0.1,0.1c0,0,0.1,0.1,0.1,0.1c0,0,0.1,0,0.2,0.1 c0.1,0,0.2,0,0.2,0s0.1,0,0.3,0c0.5,0.1,0.8,0.2,1,0.3c0.5,0.2,0.8,0.7,0.8,1.3c0,0.5-0.2,0.9-0.6,1.2 C64.7,37.4,64.2,37.5,63.6,37.5z"></path> <path class="st0" d="M72.5,37.5c-0.6,0-1.1-0.2-1.5-0.5c-0.4-0.3-0.6-0.8-0.6-1.3h1.3c0,0.2,0.1,0.4,0.2,0.5 c0.2,0.1,0.4,0.2,0.6,0.2c0.2,0,0.4,0,0.5-0.1c0.1-0.1,0.2-0.2,0.2-0.4c0-0.1,0-0.2-0.1-0.2c0-0.1-0.1-0.1-0.2-0.2 c-0.1,0-0.2-0.1-0.3-0.1c-0.1,0-0.2,0-0.4-0.1c-0.1,0-0.3,0-0.4-0.1c-0.1,0-0.2,0-0.3-0.1c-0.1,0-0.3-0.1-0.3-0.1 c-0.1,0-0.2-0.1-0.3-0.2c-0.1-0.1-0.2-0.2-0.2-0.3c-0.1-0.1-0.1-0.2-0.2-0.3c0-0.1-0.1-0.3-0.1-0.4c0-0.5,0.2-0.9,0.6-1.1 c0.4-0.3,0.9-0.4,1.4-0.4c0.6,0,1.1,0.2,1.4,0.5c0.4,0.3,0.5,0.7,0.5,1.2h-1.3c0-0.2-0.1-0.3-0.2-0.4c-0.1-0.1-0.3-0.1-0.6-0.1 c-0.2,0-0.4,0-0.5,0.1c-0.1,0.1-0.2,0.2-0.2,0.3c0,0.1,0,0.1,0,0.1c0,0,0.1,0.1,0.1,0.1c0,0,0.1,0.1,0.1,0.1c0,0,0.1,0,0.2,0.1 c0.1,0,0.2,0,0.2,0c0.1,0,0.1,0,0.3,0c0.5,0.1,0.8,0.2,1,0.3c0.5,0.2,0.8,0.7,0.8,1.3c0,0.5-0.2,0.9-0.6,1.2 C73.7,37.4,73.1,37.5,72.5,37.5z"></path> <path class="st0" d="M77.7,37.5c-0.5,0-1-0.1-1.4-0.3c-0.4-0.2-0.7-0.5-1-0.9c-0.2-0.4-0.3-0.8-0.3-1.3c0-0.5,0.1-0.9,0.3-1.3 c0.2-0.4,0.6-0.7,1-0.9c0.4-0.2,0.9-0.3,1.4-0.3c0.5,0,1,0.1,1.4,0.3c0.4,0.2,0.7,0.5,1,0.9c0.2,0.4,0.4,0.8,0.4,1.3 c0,0.5-0.1,0.9-0.4,1.3c-0.2,0.4-0.6,0.7-1,0.9C78.7,37.4,78.2,37.5,77.7,37.5z M76.7,35.9c0.2,0.3,0.6,0.4,1,0.4 c0.4,0,0.7-0.1,1-0.4c0.2-0.3,0.4-0.6,0.4-1c0-0.4-0.1-0.7-0.4-1c-0.2-0.3-0.6-0.4-1-0.4c-0.4,0-0.7,0.1-1,0.4 c-0.2,0.3-0.4,0.6-0.4,1C76.4,35.3,76.5,35.6,76.7,35.9z"></path> <path class="st0" d="M81.1,37.4v-6.8h1.3v6.8H81.1z"></path> <path class="st0" d="M85.7,37.5c-0.7,0-1.3-0.2-1.7-0.6c-0.4-0.4-0.6-1-0.6-1.6v-2.9h1.3v2.7c0,0.4,0.1,0.6,0.3,0.8 c0.2,0.2,0.4,0.3,0.7,0.3c0.3,0,0.6-0.1,0.7-0.3c0.2-0.2,0.3-0.5,0.3-0.8v-2.7H88v2.9c0,0.7-0.2,1.2-0.6,1.6 C87,37.3,86.4,37.5,85.7,37.5z"></path> <path class="st0" d="M91.3,37.5c-0.4,0-0.7-0.1-1-0.2s-0.6-0.3-0.8-0.6c-0.2-0.2-0.4-0.5-0.6-0.8c-0.1-0.3-0.2-0.7-0.2-1 c0-0.4,0.1-0.7,0.2-1c0.1-0.3,0.3-0.6,0.6-0.8c0.2-0.2,0.5-0.4,0.8-0.5c0.3-0.1,0.7-0.2,1-0.2c0.6,0,1.2,0.2,1.7,0.6 c0.5,0.4,0.8,0.9,0.9,1.5h-1.3c-0.1-0.2-0.3-0.4-0.5-0.6c-0.2-0.1-0.5-0.2-0.7-0.2c-0.4,0-0.7,0.1-0.9,0.4 c-0.2,0.3-0.4,0.6-0.4,1c0,0.4,0.1,0.7,0.4,1c0.2,0.3,0.5,0.4,0.9,0.4c0.3,0,0.5-0.1,0.7-0.2c0.2-0.1,0.4-0.3,0.5-0.6h1.4 c-0.1,0.6-0.4,1.1-0.9,1.5C92.5,37.3,92,37.5,91.3,37.5z"></path> <path class="st0" d="M94.5,31.8v-1.2h1.3v1.2H94.5z M94.5,37.4v-5h1.3v5H94.5z"></path> <path class="st0" d="M99.2,37.5c-0.5,0-1-0.1-1.4-0.3c-0.4-0.2-0.7-0.5-1-0.9c-0.2-0.4-0.3-0.8-0.3-1.3c0-0.5,0.1-0.9,0.3-1.3 c0.2-0.4,0.6-0.7,1-0.9c0.4-0.2,0.9-0.3,1.4-0.3c0.5,0,1,0.1,1.4,0.3c0.4,0.2,0.7,0.5,1,0.9c0.2,0.4,0.4,0.8,0.4,1.3 c0,0.5-0.1,0.9-0.4,1.3c-0.2,0.4-0.6,0.7-1,0.9C100.2,37.4,99.7,37.5,99.2,37.5z M98.3,35.9c0.2,0.3,0.6,0.4,1,0.4 c0.4,0,0.7-0.1,1-0.4c0.2-0.3,0.4-0.6,0.4-1c0-0.4-0.1-0.7-0.4-1c-0.2-0.3-0.6-0.4-1-0.4c-0.4,0-0.7,0.1-1,0.4 c-0.2,0.3-0.4,0.6-0.4,1C97.9,35.3,98,35.6,98.3,35.9z"></path> <path class="st0" d="M105.4,32.3c0.6,0,1,0.2,1.3,0.6c0.3,0.4,0.5,0.9,0.5,1.5v3h-1.3v-2.8c0-0.7-0.3-1.1-0.9-1.1 c-0.3,0-0.6,0.1-0.8,0.3c-0.2,0.2-0.3,0.5-0.3,1v2.6h-1.3v-5h0.9l0.3,0.6c0.2-0.2,0.4-0.4,0.7-0.5 C104.8,32.4,105.1,32.3,105.4,32.3z"></path> <path class="st0" d="M113.1,34.9c0,0.1,0,0.3,0,0.4h-3.8c0.1,0.3,0.2,0.6,0.4,0.8c0.2,0.2,0.5,0.3,0.8,0.3c0.2,0,0.4-0.1,0.6-0.2 c0.2-0.1,0.3-0.2,0.4-0.4h1.4c-0.2,0.5-0.5,1-0.9,1.3s-1,0.5-1.5,0.5c-0.5,0-0.9-0.1-1.3-0.3c-0.4-0.2-0.7-0.5-0.9-0.9 c-0.2-0.4-0.3-0.8-0.3-1.3c0-0.5,0.1-0.9,0.3-1.3c0.2-0.4,0.5-0.7,0.9-0.9c0.4-0.2,0.8-0.3,1.3-0.3c0.5,0,0.9,0.1,1.3,0.4 c0.4,0.2,0.7,0.6,0.9,0.9C113,34,113.1,34.4,113.1,34.9z M110.5,33.4c-0.3,0-0.5,0.1-0.8,0.2c-0.2,0.2-0.3,0.4-0.4,0.7h2.4 c-0.1-0.3-0.2-0.5-0.5-0.7C111,33.5,110.8,33.4,110.5,33.4z"></path> <path class="st0" d="M115.5,37.5c-0.6,0-1.1-0.2-1.5-0.5c-0.4-0.3-0.6-0.8-0.6-1.3h1.3c0,0.2,0.1,0.4,0.2,0.5 c0.2,0.1,0.4,0.2,0.6,0.2c0.2,0,0.4,0,0.5-0.1c0.1-0.1,0.2-0.2,0.2-0.4c0-0.1,0-0.2-0.1-0.2s-0.1-0.1-0.2-0.2 c-0.1,0-0.2-0.1-0.3-0.1c-0.1,0-0.2,0-0.4-0.1c-0.1,0-0.3,0-0.4-0.1c-0.1,0-0.2,0-0.3-0.1c-0.1,0-0.3-0.1-0.3-0.1 c-0.1,0-0.2-0.1-0.3-0.2c-0.1-0.1-0.2-0.2-0.2-0.3c-0.1-0.1-0.1-0.2-0.2-0.3c0-0.1-0.1-0.3-0.1-0.4c0-0.5,0.2-0.9,0.6-1.1 c0.4-0.3,0.9-0.4,1.4-0.4c0.6,0,1.1,0.2,1.4,0.5c0.4,0.3,0.5,0.7,0.5,1.2h-1.3c0-0.2-0.1-0.3-0.2-0.4c-0.1-0.1-0.3-0.1-0.6-0.1 c-0.2,0-0.4,0-0.5,0.1c-0.1,0.1-0.2,0.2-0.2,0.3c0,0.1,0,0.1,0,0.1c0,0,0.1,0.1,0.1,0.1c0,0,0.1,0.1,0.1,0.1c0,0,0.1,0,0.2,0.1 c0.1,0,0.2,0,0.2,0c0.1,0,0.1,0,0.3,0c0.5,0.1,0.8,0.2,1,0.3c0.5,0.2,0.8,0.7,0.8,1.3c0,0.5-0.2,0.9-0.6,1.2 C116.7,37.4,116.2,37.5,115.5,37.5z"></path> </g> </g> <g> <path class="st0" d="M157.8,26.7L137,22.2l-10,4.3c-0.4,0.2-0.7,0.6-0.7,1.1v11.3c0,0.8,0.9,1.4,1.6,1.1l30.8-13.2c0,0,0,0,0.1,0 C158.5,26.9,157.8,26.7,157.8,26.7z"></path> <g> <path class="st1" d="M127.9,0.1l30.8,13.2c0.4,0.2,0.7,0.6,0.7,1.1v11.3c0,0.8-0.9,1.4-1.6,1.1L127,13.6 c-0.4-0.2-0.7-0.6-0.7-1.1V1.2C126.3,0.3,127.2-0.2,127.9,0.1z"></path> </g> </g> <g> <g> <path class="st0" d="M0,9.4h5.6l6.6,12.5l6.6-12.5h5.6l-9,16.8H9L0,9.4z"></path> <path class="st0" d="M27.5,9.4h6.7l9.3,16.8h-5.7l-1.6-3H25.6l-1.5,3h-5.8L27.5,9.4z M27.5,19.7h6.6l-3.3-6.3L27.5,19.7z"></path> <path class="st0" d="M44.8,9.4h15.1c5.2,0,7,1.7,7,5.9v5.1c0,4.2-1.8,5.9-7,5.9H44.8V9.4z M49.4,21.9h9.2c2.2,0,3.1-0.6,3.1-3 v-2.3c0-2.4-0.9-3-3.1-3h-9.2V21.9z"></path> <path class="st0" d="M69.1,9.4h5.2v16.8h-5.2V9.4z"></path> <path class="st0" d="M76.8,9.4h17.9v3.9H82v3h8.5v3.2H82v2.7H95v4H76.8V9.4z"></path> <path class="st0" d="M96.6,15.3c0-4.9,2.8-6.1,7.4-6.1h7.8c5.9,0,6.7,2.1,6.7,5.4v0.5h-5.1c0-1.7-1-1.9-2.6-1.9h-5.6 c-2.6,0-3.3,0.6-3.3,3.5v2.1c0,2.9,0.7,3.5,3.3,3.5h5.5c1.3,0,2.7-0.2,2.7-1.8v-0.5H107v-3.3h11.6v4.6c0,4.8-2.5,5.1-8.3,5.1H104 c-4.6,0-7.4-1.2-7.4-6.1V15.3z"></path> </g> </g> </g> </svg> 