<?xml version="1.0" encoding="UTF-8"?>
<svg id="Capa_1" xmlns="http://www.w3.org/2000/svg" version="1.1" viewBox="0 0 44.4 44.8">
  <!-- Generator: Adobe Illustrator 29.0.0, SVG Export Plug-In . SVG Version: 2.1.0 Build 186)  -->
  <defs>
    <style>
      .st0 {
        fill: #fff;
      }

      .st1 {
        fill: #edaa00;
      }
    </style>
  </defs>
  <path class="st0" d="M37.7,29l-20.8-4.5-10,4.3c-.4.2-.7.6-.7,1.1v11.3c0,.8.9,1.4,1.6,1.1l30.8-13.2h.1c-.3.1-1,0-1,0Z"/>
  <path class="st1" d="M7.8,2.4l30.8,13.2c.4.2.7.6.7,1.1v11.3c0,.8-.9,1.4-1.6,1.1L6.9,15.9c-.4-.2-.7-.6-.7-1.1V3.5c0-.9.9-1.4,1.6-1.1Z"/>
</svg>